<svg xmlns="http://www.w3.org/2000/svg" version="1.1" xmlns:xlink="http://www.w3.org/1999/xlink" xmlns:svgjs="http://svgjs.dev/svgjs" width="100%" height="100%" viewBox="0 0 1000 600"><rect width="1000" height="600" x="0" y="0" fill="#e2d3f4"/><g><rect width="333.3333333333333" height="333.3333333333333" rx="13.333333333333334" ry="13.333333333333334" y="225.2335959436582" fill="Red" transform="matrix(0.6157289412009089,0,0,0.6157289412009089,0,58.69564729017635)" x="203.0113067626953"/><path d="M254.33286017042172 402.92422616753583L254.33286017042172 466.900267054359L236.56332228701075 466.900267054359L236.56332228701075 316.9002674895783L284.90901524428466 316.9002674895783Q295.9472354062109 316.9002674895783 304.84626561427547 319.18207010703077Q313.77381835505815 321.4923952572014 320.70479380557003 326.2271356884152Q327.6072467233637 330.9333535869109 331.4292661075965 338.86261768255815Q335.2512854918294 346.7633592454873 335.2512854918294 357.28817381848677L335.2512854918294 357.28817381848677Q335.2512854918294 366.0160688302424 333.6255011268945 372.8899992153179Q332.0282392946778 379.76392960039345 328.1206523122904 385.78218400392427Q324.2130653299031 391.8004384074551 317.8810630664726 395.76507045527876Q311.5775833357602 399.7297025031024 301.7087870152783 401.98298258783666Q291.8114681620783 404.236262672571 278.77667070988116 404.236262672571L278.77667070988116 404.236262672571Q268.4515138659088 404.236262672571 254.33286017042172 402.92422616753583L254.33286017042172 402.92422616753583ZM280.4880226729705 388.8911400702032L280.4880226729705 388.8911400702032Q290.32829646073424 388.8911400702032 297.34483950940046 386.9801303780868Q304.3613825580668 385.06912068597035 308.1263568768633 382.2739124795911Q311.89133119565986 379.4501817404937 314.0305211495215 374.9436215710251Q316.19823363610135 370.43706140155655 316.68311669231 366.67208708275996Q317.19652228123687 362.9071127639634 317.19652228123687 357.6019216783865L317.19652228123687 357.6019216783865Q317.19652228123687 344.8523495533709 308.611239933072 338.86261768255815Q300.0544801176253 332.84436327902733 285.3083307023388 332.84436327902733L285.3083307023388 332.84436327902733L254.33286017042172 332.84436327902733L254.33286017042172 388.69148234117614Q273.6711373533313 388.8911400702032 280.4880226729705 388.8911400702032ZM437.53308781913563 457.7730565845492L420.562180851833 457.7730565845492L375.04021863365654 351.8974151347553L371.24672178214183 341.7433934870919L371.9312625673776 378.05257763730407L371.9312625673776 466.900267054359L355.701941450747 466.900267054359L355.701941450747 318.5830969199495L378.14917469993554 318.5830969199495L429.8034814525154 436.7234274385503L480.9443826161685 318.5830969199495L502.79264267827574 318.5830969199495L502.79264267827574 466.900267054359L485.96434837456394 466.900267054359L485.96434837456394 377.6532621792499L486.6488891597997 342.17123147786424L482.94095990643945 352.2967305928095L437.53308781913563 457.7730565845492Z " fill="white" transform="matrix(0.6157289412009089,0,0,0.6157289412009089,0,58.69564729017635)"/><path d="M632.9107725916099 383.72270028472826L632.9107725916099 431.36501453888417L619.677976434526 431.36501453888417L619.677976434526 319.6615233830189L655.6805277768328 319.6615233830189Q663.9005793222444 319.6615233830189 670.5275976224214 321.36075884460274Q677.175856365868 323.0812347494563 682.3372840804287 326.6071483322427Q687.4774713517197 330.1118214717593 690.3236907498726 336.01666470076304Q693.1699101480255 341.90026748649694 693.1699101480255 349.7379910530522L693.1699101480255 349.7379910530522Q693.1699101480255 356.2375666936103 691.959204881647 361.3565135216315Q690.7697400585383 366.4754603496527 687.8597993305762 370.95719387957996Q684.9498586026139 375.43892740950724 680.2344801967188 378.3913490240091Q675.5403422340935 381.34377063851093 668.1911488627436 383.021765656825Q660.8207150481238 384.699760675139 651.1138324738263 384.699760675139L651.1138324738263 384.699760675139Q643.4247920101596 384.699760675139 632.9107725916099 383.72270028472826L632.9107725916099 383.72270028472826ZM652.3882590700142 373.27240219598787L652.3882590700142 373.27240219598787Q659.7162119980944 373.27240219598787 664.9413610424645 371.84929249691146Q670.1665100868347 370.426182797835 672.970248598448 368.34461935739483Q675.7739871100613 366.2418154736849 677.3670203552961 362.8858254370569Q678.9812940438007 359.5298354004289 679.3423815793872 356.7260968888156Q679.7247095582436 353.92235837720233 679.7247095582436 349.97163592902L679.7247095582436 349.97163592902Q679.7247095582436 340.47715778742054 673.3313361340346 336.01666470076304Q666.9592031530954 331.53493117083576 655.9778939826099 331.53493117083576L655.9778939826099 331.53493117083576L632.9107725916099 331.53493117083576L632.9107725916099 373.1237190930993Q647.3117931285326 373.27240219598787 652.3882590700142 373.27240219598787ZM708.1656630965025 349.44062484727505L720.718765068953 349.44062484727505L720.718765068953 431.36501453888417L708.1656630965025 431.36501453888417L708.1656630965025 349.44062484727505ZM708.1656630965025 319.6615233830189L720.718765068953 319.6615233830189L720.718765068953 334.444871898798L708.1656630965025 334.444871898798L708.1656630965025 319.6615233830189ZM766.1945541095895 432.85184556776994L766.1945541095895 432.85184556776994Q754.2361845486935 432.85184556776994 749.2871612668305 426.43723170029114Q744.3168975416979 420.0226178328122 744.3168975416979 404.1135258237339L744.3168975416979 404.1135258237339L744.3168975416979 317.64368127238816L756.70007596799 316.90026575794525L756.70007596799 399.1857429851409Q756.70007596799 404.2622089266225 756.8275186276087 407.32083275747334Q756.9337208439576 410.37945658832416 757.3797701526235 413.33187820282603Q757.8258194612893 416.2842998173279 758.5692349757321 417.77113084621374Q759.3338909334448 419.25796187509957 760.7357601892516 420.4899075847478Q762.1588698883279 421.72185329439606 764.134231112419 422.146662159792Q766.1095923365101 422.5502305819182 769.0407735077422 422.5502305819182L769.0407735077422 422.5502305819182Q771.4197031539595 422.5502305819182 778.4502898762626 421.6581319645867L778.4502898762626 421.6581319645867L779.1087436176263 431.5986594148519Q771.4197031539595 432.85184556776994 766.1945541095895 432.85184556776994ZM788.8156261919237 349.44062484727505L801.368728164374 349.44062484727505L801.368728164374 431.36501453888417L788.8156261919237 431.36501453888417L788.8156261919237 349.44062484727505ZM788.8156261919237 319.6615233830189L801.368728164374 319.6615233830189L801.368728164374 334.444871898798L788.8156261919237 334.444871898798L788.8156261919237 319.6615233830189ZM837.2863177336017 466.0931392850031L824.8181775342305 466.9002761292554L824.8181775342305 349.44062484727505L835.799486704716 349.44062484727505L836.9889515278246 360.570617120649Q847.7366158223422 347.7201489424215 862.8173305438984 347.7201489424215L862.8173305438984 347.7201489424215Q874.0322845903515 347.7201489424215 881.7850463838276 353.327625965648Q889.5590486205735 358.9351029888746 893.2548857495183 368.4933024602834Q896.950722878463 378.0515019316923 896.950722878463 390.8170083368407L896.950722878463 390.8170083368407Q896.950722878463 403.07274410351386 892.9150386572014 412.5884626883831Q888.8793544359401 422.10418127325244 881.0841117559244 427.58421563686016Q873.2676286326387 433.08549044373774 862.8173305438984 433.08549044373774L862.8173305438984 433.08549044373774Q854.9158856475337 433.08549044373774 847.9702606983099 429.53833641768153Q841.0246357490862 425.9911823916254 836.8402684249361 420.17130093570086L836.8402684249361 420.17130093570086Q837.2863177336017 428.22142893495413 837.2863177336017 435.8467480688114L837.2863177336017 435.8467480688114L837.2863177336017 466.0931392850031ZM861.0968546390448 422.5502305819182L861.0968546390448 422.5502305819182Q866.7680529920808 422.5502305819182 871.249786522008 419.98013694627264Q875.7315200519354 417.41004331062715 878.4927776770089 412.9283097806999Q881.2752757453525 408.44657625077264 882.677145001159 402.73289701119705Q884.1002547002356 397.0192177716215 884.1002547002356 390.3709590281749L884.1002547002356 390.3709590281749Q884.1002547002356 376.33102602683874 878.1954114712319 367.3250780804446Q872.3118086854979 358.3403705773202 860.9481715361562 358.3403705773202L860.9481715361562 358.3403705773202Q837.2013559605225 358.3403705773202 837.2013559605225 389.0328111021777L837.2013559605225 389.0328111021777Q837.2013559605225 405.6853186256989 842.7663520972094 414.1177746038085Q848.3313482338965 422.5502305819182 861.0968546390448 422.5502305819182ZM916.6618542328351 349.44062484727505L929.2149562052855 349.44062484727505L929.2149562052855 431.36501453888417L916.6618542328351 431.36501453888417L916.6618542328351 349.44062484727505ZM916.6618542328351 319.6615233830189L929.2149562052855 319.6615233830189L929.2149562052855 334.444871898798L916.6618542328351 334.444871898798L916.6618542328351 319.6615233830189ZM974.690745245922 432.85184556776994L974.690745245922 432.85184556776994Q962.732375685026 432.85184556776994 957.7621119598934 426.43723170029114Q952.7918482347609 420.0226178328122 952.7918482347609 404.1135258237339L952.7918482347609 404.1135258237339L952.7918482347609 317.64368127238816L965.1962671043225 316.90026575794525L965.1962671043225 399.1857429851409Q965.1962671043225 404.2622089266225 965.3024693206714 407.32083275747334Q965.4299119802902 410.37945658832416 965.875961288956 413.33187820282603Q966.3220105976218 416.2842998173279 967.0654261120646 417.77113084621374Q967.8088416265075 419.25796187509957 969.2319513255841 420.4899075847478Q970.6550610246604 421.72185329439606 972.6304222487518 422.146662159792Q974.6057834728429 422.5502305819182 977.5157242008052 422.5502305819182L977.5157242008052 422.5502305819182Q979.9158942902923 422.5502305819182 986.9252405693255 421.6581319645867L986.9252405693255 421.6581319645867L987.604934753959 431.5986594148519Q979.9158942902923 432.85184556776994 974.690745245922 432.85184556776994ZM997.3118173282564 349.44062484727505L1009.843678857437 349.44062484727505L1009.843678857437 431.36501453888417L997.3118173282564 431.36501453888417L997.3118173282564 349.44062484727505ZM997.3118173282564 319.6615233830189L1009.843678857437 319.6615233830189L1009.843678857437 334.444871898798L997.3118173282564 334.444871898798L997.3118173282564 319.6615233830189ZM1134.779966170386 424.5680726925489L1122.1631428681262 424.5680726925489L1088.2633954095295 345.72354727506047L1085.4171760113766 338.1619494710126L1085.9481870931215 365.2010337534648L1085.9481870931215 431.36501453888417L1073.841134429337 431.36501453888417L1073.841134429337 320.91470953593694L1090.5786037259375 320.91470953593694L1129.023806044271 408.89262555943833L1167.1079208270178 320.91470953593694L1183.3993408149524 320.91470953593694L1183.3993408149524 431.36501453888417L1170.8462388425023 431.36501453888417L1170.8462388425023 364.90366754768763L1171.377249924247 338.48055612005953L1168.6159922991735 346.02091348083763L1134.779966170386 424.5680726925489ZM1216.2583065533292 390.5833634608729L1216.2583065533292 390.5833634608729Q1216.2583065533292 405.15430754395396 1222.715401307348 413.92661061438037Q1229.1724960613662 422.69891368480677 1241.5556744876585 422.69891368480677L1241.5556744876585 422.69891368480677Q1253.8114102543313 422.69891368480677 1260.056100575652 413.96909150091994Q1266.2795504537025 405.2392693170332 1266.2795504537025 390.4346803579843L1266.2795504537025 390.4346803579843Q1266.2795504537025 375.43892740950724 1260.1198219054613 366.8153074419694Q1253.96009335722 358.19168747443166 1241.3432700549602 358.19168747443166L1241.3432700549602 358.19168747443166Q1229.0875342882873 358.19168747443166 1222.6729204208082 367.0064714313976Q1216.2583065533292 375.8000149450938 1216.2583065533292 390.5833634608729ZM1279.1937399617395 390.3709590281749L1279.1937399617395 390.3709590281749Q1279.1937399617395 409.4023961979135 1269.0408080787763 421.2545635424605Q1258.887876195813 433.08549044373774 1240.960942076104 433.08549044373774L1240.960942076104 433.08549044373774Q1223.7137021410283 433.08549044373774 1213.5182893715255 421.1271208828417Q1203.3228766020227 409.1899917652155 1203.3228766020227 390.4346803579843L1203.3228766020227 390.4346803579843Q1203.3228766020227 371.3182814151665 1213.560770258065 359.5298354004289Q1223.7986639141075 347.7201489424215 1241.6406362607374 347.7201489424215L1241.6406362607374 347.7201489424215Q1259.1852424015901 347.7201489424215 1269.1894911816648 359.5723162869685Q1279.1937399617395 371.4032431882457 1279.1937399617395 390.3709590281749ZM1322.9490530975227 432.85184556776994L1322.9490530975227 432.85184556776994Q1310.8632408770077 432.85184556776994 1305.786774935526 426.96824278203604Q1300.7103089940445 421.06339955303235 1300.4129427882672 407.9155651690277L1300.4129427882672 407.9155651690277L1300.4129427882672 358.7014581129068L1288.2421687946733 358.7014581129068L1288.7519394331484 350.5026470107649L1300.327981015188 349.44062484727505L1304.5973101124173 330.70655388331363L1312.7961212145592 330.40918767753647L1312.7961212145592 349.44062484727505L1335.587116843052 349.44062484727505L1335.587116843052 358.7014581129068L1312.7961212145592 358.7014581129068L1312.7961212145592 405.6853186256989Q1312.7961212145592 415.00987322114 1315.6423406127121 418.8119125664338Q1318.488560010865 422.63519235499734 1325.3492231870096 422.63519235499734L1325.3492231870096 422.63519235499734Q1327.813114606306 422.63519235499734 1336.0331661517175 421.4244870886189L1336.0331661517175 421.4244870886189L1336.542936790193 431.28005276580495Q1327.6644315034175 432.85184556776994 1322.9490530975227 432.85184556776994ZM1358.1232271523072 390.5833634608729L1358.1232271523072 390.5833634608729Q1358.1232271523072 405.15430754395396 1364.5803219063255 413.92661061438037Q1371.0586571036138 422.69891368480677 1383.4418355299058 422.69891368480677L1383.4418355299058 422.69891368480677Q1395.697571296579 422.69891368480677 1401.92102117463 413.96909150091994Q1408.1657114959503 405.2392693170332 1408.1657114959503 390.4346803579843L1408.1657114959503 390.4346803579843Q1408.1657114959503 375.43892740950724 1402.0059829477088 366.8153074419694Q1395.8462543994674 358.19168747443166 1383.229431097208 358.19168747443166L1383.229431097208 358.19168747443166Q1370.9736953305346 358.19168747443166 1364.559081463056 367.0064714313976Q1358.1232271523072 375.8000149450938 1358.1232271523072 390.5833634608729ZM1421.079901003987 390.3709590281749L1421.079901003987 390.3709590281749Q1421.079901003987 409.4023961979135 1410.9269691210238 421.2545635424605Q1400.7740372380608 433.08549044373774 1382.8471031183517 433.08549044373774L1382.8471031183517 433.08549044373774Q1365.5998631832758 433.08549044373774 1355.404450413773 421.1271208828417Q1345.2090376442702 409.1899917652155 1345.2090376442702 390.4346803579843L1345.2090376442702 390.4346803579843Q1345.2090376442702 371.3182814151665 1355.4469313003126 359.5298354004289Q1365.6635845130852 347.7201489424215 1383.526797302985 347.7201489424215L1383.526797302985 347.7201489424215Q1401.0714034438377 347.7201489424215 1411.0756522239126 359.5723162869685Q1421.079901003987 371.4032431882457 1421.079901003987 390.3709590281749Z " fill="red" transform="matrix(0.6157289412009089,0,0,0.6157289412009089,0,58.69564729017635)"/></g></svg>